<?xml version="1.0" standalone="no"?>
<!DOCTYPE svg PUBLIC "-//W3C//DTD SVG 20010904//EN"
 "http://www.w3.org/TR/2001/REC-SVG-20010904/DTD/svg10.dtd">
<svg version="1.0" xmlns="http://www.w3.org/2000/svg"
 width="4096.000000pt" height="4096.000000pt" viewBox="0 0 4096.000000 4096.000000"
 preserveAspectRatio="xMidYMid meet">

<g transform="translate(0.000000,4096.000000) scale(0.100000,-0.100000)"
fill="#000000" stroke="none">
<path d="M25235 40954 c-582 -25 -968 -59 -1430 -125 -1317 -190 -2520 -600
-3555 -1212 -880 -521 -1682 -1238 -2292 -2052 -315 -420 -559 -818 -802
-1305 -477 -959 -791 -1997 -960 -3183 -51 -355 -77 -605 -118 -1147 -8 -112
-13 -1027 -15 -3317 l-4 -3163 -3234 0 -3235 0 2 -3677 3 -3678 3233 -3 3232
-2 0 -8890 0 -8890 23 -5 c80 -17 636 -92 997 -134 902 -105 1724 -156 2695
-168 1319 -15 2623 72 3945 263 135 19 255 38 268 41 l22 5 0 8889 0 8889
2964 0 2964 0 6 33 c3 17 255 1663 561 3657 305 1994 557 3635 560 3648 l5 22
-3530 0 -3530 0 0 2488 c0 1600 4 2544 10 2647 111 1721 948 2893 2400 3363
372 121 655 177 1155 229 129 14 406 16 1973 20 l1822 4 0 3129 c0 2971 -1
3129 -17 3134 -28 8 -507 81 -828 125 -1324 183 -2574 297 -3845 351 -236 11
-1295 21 -1445 14z"/>
</g>
</svg>
