<?xml version="1.0" standalone="no"?>
<!DOCTYPE svg PUBLIC "-//W3C//DTD SVG 20010904//EN"
 "http://www.w3.org/TR/2001/REC-SVG-20010904/DTD/svg10.dtd">
<svg version="1.0" xmlns="http://www.w3.org/2000/svg"
 width="4096.000000pt" height="4096.000000pt" viewBox="0 0 4096.000000 4096.000000"
 preserveAspectRatio="xMidYMid meet">

<g transform="translate(0.000000,4096.000000) scale(0.100000,-0.100000)"
fill="#000000" stroke="none">
<path d="M17430 37950 c-1333 -7 -1563 -10 -2360 -31 -548 -14 -1523 -53
-2010 -79 -1409 -78 -2585 -292 -3651 -664 -1228 -428 -2176 -976 -3084 -1785
-192 -170 -640 -622 -805 -812 -700 -800 -1173 -1580 -1575 -2594 -507 -1279
-754 -2565 -840 -4385 -87 -1839 -98 -2625 -98 -7120 0 -4495 11 -5281 98
-7120 86 -1820 333 -3106 840 -4385 409 -1031 907 -1844 1624 -2650 147 -166
587 -606 756 -756 828 -738 1682 -1253 2760 -1667 1201 -461 2441 -699 4085
-787 642 -34 1577 -68 2320 -85 1286 -29 7272 -36 9290 -10 1216 16 2562 62
3360 115 1815 121 3297 493 4634 1162 833 417 1528 924 2236 1633 463 462 792
856 1112 1330 736 1089 1275 2503 1522 3995 118 706 172 1266 216 2225 83
1830 93 2534 93 7000 0 4466 -9 5165 -93 7000 -50 1089 -129 1815 -281 2580
-266 1342 -754 2576 -1414 3575 -330 500 -671 912 -1155 1395 -892 892 -1786
1485 -2950 1955 -1172 474 -2397 737 -3915 840 -360 24 -1217 62 -1905 85
-1321 43 -4870 59 -8810 40z m7470 -3160 c1252 -19 2609 -71 3265 -125 1030
-86 1902 -274 2654 -575 817 -326 1367 -686 1971 -1290 616 -616 986 -1181
1307 -1999 348 -886 532 -1850 603 -3161 11 -197 33 -713 50 -1150 46 -1197
54 -2046 54 -6010 0 -4436 -7 -4983 -85 -6735 -40 -922 -82 -1374 -179 -1956
-176 -1051 -527 -2010 -995 -2718 -408 -619 -1037 -1248 -1651 -1654 -646
-426 -1515 -762 -2448 -947 -663 -131 -1233 -188 -2341 -235 -1701 -72 -2255
-79 -6625 -79 -4364 0 -4960 7 -6620 79 -736 32 -966 47 -1420 96 -1471 156
-2712 586 -3602 1247 -536 397 -1091 980 -1431 1502 -411 632 -740 1473 -921
2355 -134 652 -197 1230 -241 2190 -81 1782 -89 2389 -89 6865 0 4464 8 5064
89 6845 44 960 107 1538 241 2190 181 883 510 1723 921 2355 336 516 894 1104
1418 1493 765 568 1783 969 2964 1167 599 100 1060 141 2066 185 746 32 1158
46 1860 61 1040 23 7767 26 9185 4z"/>
<path d="M29655 31899 c-384 -25 -789 -177 -1103 -413 -1007 -760 -1127 -2218
-257 -3125 633 -659 1614 -836 2430 -437 634 310 1060 899 1161 1603 20 144
20 424 -1 572 -90 630 -455 1180 -1004 1511 -362 218 -788 318 -1226 289z"/>
<path d="M19895 29435 c-1191 -83 -2285 -372 -3330 -879 -1812 -880 -3279
-2347 -4161 -4161 -519 -1069 -812 -2201 -884 -3412 -22 -374 -11 -952 26
-1343 215 -2293 1291 -4394 3031 -5917 1316 -1153 2937 -1893 4673 -2132 433
-60 689 -76 1235 -76 501 0 619 6 1020 50 1546 172 3052 765 4310 1700 1450
1076 2538 2549 3133 4240 263 748 414 1478 484 2330 8 103 13 334 13 645 0
478 -6 613 -41 945 -262 2485 -1541 4733 -3549 6240 -939 704 -1998 1214
-3130 1505 -496 128 -1019 214 -1575 261 -209 17 -1029 20 -1255 4z m900
-3140 c826 -32 1738 -293 2498 -713 758 -420 1416 -1006 1924 -1712 598 -833
964 -1811 1063 -2844 28 -289 28 -800 0 -1092 -106 -1120 -531 -2180 -1229
-3064 -263 -334 -615 -686 -949 -951 -923 -733 -2021 -1162 -3202 -1249 -187
-14 -654 -14 -840 0 -1017 76 -1970 402 -2810 963 -325 218 -560 410 -854 697
-982 962 -1581 2220 -1716 3605 -19 188 -27 536 -19 763 16 434 69 804 175
1225 222 874 658 1703 1256 2389 202 232 534 547 786 746 962 759 2149 1196
3372 1242 190 7 258 6 545 -5z"/>
</g>
</svg>
