<?xml version="1.0" standalone="no"?>
<!DOCTYPE svg PUBLIC "-//W3C//DTD SVG 20010904//EN"
 "http://www.w3.org/TR/2001/REC-SVG-20010904/DTD/svg10.dtd">
<svg version="1.0" xmlns="http://www.w3.org/2000/svg"
 width="4096.000000pt" height="4096.000000pt" viewBox="0 0 4096.000000 4096.000000"
 preserveAspectRatio="xMidYMid meet">

<g transform="translate(0.000000,4096.000000) scale(0.100000,-0.100000)"
fill="#000000" stroke="none">
<path d="M27590 37549 c-2643 -156 -5090 -1414 -6746 -3469 -1090 -1353 -1784
-2989 -1998 -4710 -39 -309 -55 -521 -68 -887 -8 -222 -15 -333 -22 -333 -32
0 -475 43 -621 60 -1173 137 -2233 372 -3350 744 -2586 861 -4928 2361 -6794
4351 -518 552 -965 1098 -1421 1734 -234 326 -427 496 -723 636 -464 220 -990
220 -1454 0 -202 -96 -367 -216 -518 -378 -180 -193 -273 -356 -433 -757 -311
-779 -608 -1717 -846 -2670 -840 -3357 -918 -6665 -230 -9610 941 -4020 3258
-7327 6879 -9817 195 -134 534 -356 730 -478 61 -37 112 -69 114 -71 9 -8
-496 -229 -839 -366 -1767 -708 -3637 -1134 -5540 -1262 -446 -30 -730 -38
-1275 -35 -840 5 -908 4 -1012 -15 -356 -64 -664 -223 -916 -473 -431 -427
-604 -1052 -452 -1639 106 -406 370 -773 720 -999 262 -170 1355 -731 2030
-1043 3106 -1434 6299 -2256 9640 -2482 881 -60 2134 -66 3025 -15 3397 195
6582 1041 9495 2524 3603 1834 6587 4551 8751 7966 1346 2124 2365 4535 3004
7106 413 1661 671 3391 775 5194 55 957 66 2025 25 2475 -16 175 -22 156 85
276 625 701 1264 1590 1742 2424 322 561 632 1194 873 1781 311 755 672 1908
725 2315 71 539 -127 1085 -528 1459 -127 119 -249 203 -402 279 -411 204
-861 237 -1300 95 -127 -42 -311 -135 -440 -223 -271 -185 -645 -433 -815
-538 -917 -571 -1902 -1059 -2921 -1448 l-177 -67 -103 89 c-1580 1367 -3529
2156 -5624 2278 -196 11 -846 11 -1045 -1z m1040 -3419 c751 -75 1379 -244
2021 -544 704 -329 1317 -782 1870 -1382 89 -96 186 -198 216 -227 207 -197
516 -357 804 -417 222 -46 427 -49 654 -10 150 26 784 226 1234 389 63 23 115
40 117 38 5 -5 -226 -294 -365 -457 -160 -188 -374 -421 -586 -640 -200 -205
-239 -251 -312 -360 -72 -109 -109 -178 -158 -299 -130 -317 -157 -642 -86
-1040 71 -398 91 -657 91 -1188 0 -1209 -93 -2480 -271 -3703 -607 -4180
-2245 -7863 -4792 -10773 -501 -573 -1181 -1253 -1754 -1754 -1543 -1351
-3311 -2449 -5238 -3253 -2064 -861 -4309 -1380 -6600 -1524 -539 -35 -748
-40 -1395 -40 -727 0 -1004 10 -1680 60 -1021 75 -2121 237 -3155 464 -292 64
-736 170 -755 180 -10 6 -1 12 30 20 226 59 929 288 1320 430 1625 589 3130
1347 4560 2295 300 199 393 272 513 403 386 420 536 1022 392 1578 -106 408
-367 770 -723 1002 -86 56 -199 112 -562 278 -470 214 -1179 581 -1645 849
-1053 607 -1965 1262 -2815 2023 -343 306 -897 872 -1206 1232 -1719 2000
-2722 4433 -2974 7216 -46 514 -60 853 -61 1439 0 264 5 588 11 720 42 962
162 1948 354 2918 41 205 103 495 117 551 l10 38 202 -199 c249 -244 460 -443
682 -644 3358 -3020 7626 -4804 12135 -5074 571 -34 1399 -46 1736 -25 409 25
760 171 1067 444 224 199 420 523 496 821 56 222 53 152 61 1470 7 1304 6
1270 61 1650 121 838 445 1680 924 2405 1022 1546 2690 2515 4565 2650 155 11
748 4 890 -10z"/>
</g>
</svg>
