<?xml version="1.0" standalone="no"?>
<!DOCTYPE svg PUBLIC "-//W3C//DTD SVG 20010904//EN"
 "http://www.w3.org/TR/2001/REC-SVG-20010904/DTD/svg10.dtd">
<svg version="1.0" xmlns="http://www.w3.org/2000/svg"
 width="4096.000000pt" height="4096.000000pt" viewBox="0 0 4096.000000 4096.000000"
 preserveAspectRatio="xMidYMid meet">

<g transform="translate(0.000000,4096.000000) scale(0.100000,-0.100000)"
fill="#000000" stroke="none">
<path d="M20480 32697 c0 -11 -203 -15 -1192 -20 -3514 -20 -7360 -122 -9808
-262 -1640 -94 -2151 -149 -2690 -291 -545 -143 -1074 -392 -1511 -711 -273
-198 -606 -504 -782 -716 -493 -594 -902 -1589 -1162 -2822 -76 -360 -88 -448
-165 -1161 -135 -1262 -213 -2393 -271 -3949 -16 -429 -23 -3549 -10 -4175 36
-1661 131 -3134 302 -4675 54 -489 78 -634 185 -1095 247 -1073 630 -1977
1069 -2520 108 -134 384 -408 535 -531 639 -523 1399 -842 2399 -1009 97 -17
338 -50 536 -75 198 -25 419 -54 490 -65 416 -61 1784 -138 3490 -195 2111
-71 4754 -125 7935 -164 1542 -19 4925 24 7380 94 2988 86 5463 219 6320 341
1131 160 2011 595 2766 1365 217 222 376 435 537 719 429 761 800 1977 916
3005 143 1270 234 2449 286 3680 34 825 37 1042 42 2680 6 2115 -6 2792 -73
4040 -68 1285 -224 2985 -320 3495 -229 1215 -630 2274 -1103 2906 -355 477
-970 969 -1561 1252 -656 313 -1248 443 -2405 526 -2245 163 -5937 285 -9805
326 -1971 20 -2330 21 -2330 7z m1485 -2077 c4279 -36 7881 -147 10390 -320
1012 -70 1400 -147 1805 -356 299 -154 637 -436 782 -654 236 -352 506 -1127
653 -1870 40 -203 58 -345 114 -910 138 -1373 212 -2613 242 -4065 13 -660 6
-3920 -10 -4365 -37 -1052 -73 -1701 -137 -2515 -58 -740 -152 -1664 -190
-1875 -112 -610 -314 -1258 -529 -1695 -108 -221 -167 -308 -289 -431 -417
-416 -885 -643 -1521 -738 -846 -126 -3995 -272 -7680 -356 -2937 -66 -4893
-80 -6965 -50 -4803 71 -7773 156 -9460 271 -320 21 -351 25 -635 63 -104 14
-271 35 -370 46 -816 96 -1274 229 -1675 488 -206 133 -407 324 -502 478 -253
410 -528 1233 -651 1954 -28 163 -26 142 -67 530 -127 1220 -208 2383 -250
3620 -40 1181 -40 4057 0 5245 45 1325 143 2703 281 3914 77 683 394 1712 668
2173 104 175 259 334 486 503 144 106 222 155 375 230 404 201 797 276 1805
345 2011 136 4823 237 8080 290 1142 18 1475 22 2614 29 866 6 1146 10 1149
19 5 15 2 15 1487 2z"/>
<path d="M17320 20480 c0 -3117 4 -5240 9 -5238 21 7 8941 5233 8941 5238 0 5
-8920 5231 -8941 5238 -5 2 -9 -2117 -9 -5238z"/>
</g>
</svg>
